<mxfile host="Electron" agent="Mozilla/5.0 (Windows NT 10.0; Win64; x64) AppleWebKit/537.36 (KHTML, like Gecko) draw.io/24.7.17 Chrome/128.0.6613.36 Electron/32.0.1 Safari/537.36" version="24.7.17">
  <diagram id="C5RBs43oDa-KdzZeNtuy" name="Page-1">
    <mxGraphModel dx="1036" dy="1783" grid="1" gridSize="10" guides="1" tooltips="1" connect="1" arrows="1" fold="1" page="1" pageScale="1" pageWidth="827" pageHeight="1169" math="0" shadow="0">
      <root>
        <mxCell id="WIyWlLk6GJQsqaUBKTNV-0" />
        <mxCell id="WIyWlLk6GJQsqaUBKTNV-1" parent="WIyWlLk6GJQsqaUBKTNV-0" />
        <mxCell id="WIyWlLk6GJQsqaUBKTNV-2" value="" style="rounded=0;html=1;jettySize=auto;orthogonalLoop=1;fontSize=11;endArrow=block;endFill=0;endSize=8;strokeWidth=1;shadow=0;labelBackgroundColor=none;edgeStyle=orthogonalEdgeStyle;" parent="WIyWlLk6GJQsqaUBKTNV-1" source="WIyWlLk6GJQsqaUBKTNV-3" target="WIyWlLk6GJQsqaUBKTNV-6" edge="1">
          <mxGeometry relative="1" as="geometry" />
        </mxCell>
        <mxCell id="WIyWlLk6GJQsqaUBKTNV-3" value="Пересечение с аномалией" style="rounded=1;whiteSpace=wrap;html=1;fontSize=12;glass=0;strokeWidth=1;shadow=0;" parent="WIyWlLk6GJQsqaUBKTNV-1" vertex="1">
          <mxGeometry x="340" y="-320" width="120" height="40" as="geometry" />
        </mxCell>
        <mxCell id="WIyWlLk6GJQsqaUBKTNV-5" value="Нет" style="edgeStyle=orthogonalEdgeStyle;rounded=0;html=1;jettySize=auto;orthogonalLoop=1;fontSize=11;endArrow=block;endFill=0;endSize=8;strokeWidth=1;shadow=0;labelBackgroundColor=none;" parent="WIyWlLk6GJQsqaUBKTNV-1" source="WIyWlLk6GJQsqaUBKTNV-6" target="WIyWlLk6GJQsqaUBKTNV-7" edge="1">
          <mxGeometry y="10" relative="1" as="geometry">
            <mxPoint as="offset" />
          </mxGeometry>
        </mxCell>
        <mxCell id="pZb2dNWM5AZfSOz7x3Y4-1" style="edgeStyle=orthogonalEdgeStyle;rounded=0;orthogonalLoop=1;jettySize=auto;html=1;exitX=0;exitY=0.5;exitDx=0;exitDy=0;entryX=0.5;entryY=0;entryDx=0;entryDy=0;" edge="1" parent="WIyWlLk6GJQsqaUBKTNV-1" source="WIyWlLk6GJQsqaUBKTNV-6" target="pZb2dNWM5AZfSOz7x3Y4-4">
          <mxGeometry relative="1" as="geometry">
            <mxPoint x="225" y="-190" as="targetPoint" />
          </mxGeometry>
        </mxCell>
        <mxCell id="WIyWlLk6GJQsqaUBKTNV-6" value="Аномалия готова? (Прошло КД и инициатор указан в списке инициаторов" style="rhombus;whiteSpace=wrap;html=1;shadow=0;fontFamily=Helvetica;fontSize=12;align=center;strokeWidth=1;spacing=6;spacingTop=-4;" parent="WIyWlLk6GJQsqaUBKTNV-1" vertex="1">
          <mxGeometry x="320" y="-240" width="160" height="140" as="geometry" />
        </mxCell>
        <mxCell id="WIyWlLk6GJQsqaUBKTNV-7" value="Конец кода" style="rounded=1;whiteSpace=wrap;html=1;fontSize=12;glass=0;strokeWidth=1;shadow=0;" parent="WIyWlLk6GJQsqaUBKTNV-1" vertex="1">
          <mxGeometry x="510" y="-190" width="120" height="40" as="geometry" />
        </mxCell>
        <mxCell id="pZb2dNWM5AZfSOz7x3Y4-6" style="edgeStyle=orthogonalEdgeStyle;rounded=0;orthogonalLoop=1;jettySize=auto;html=1;exitX=0.5;exitY=1;exitDx=0;exitDy=0;entryX=0.5;entryY=0;entryDx=0;entryDy=0;" edge="1" parent="WIyWlLk6GJQsqaUBKTNV-1" source="pZb2dNWM5AZfSOz7x3Y4-4" target="pZb2dNWM5AZfSOz7x3Y4-5">
          <mxGeometry relative="1" as="geometry" />
        </mxCell>
        <mxCell id="pZb2dNWM5AZfSOz7x3Y4-8" style="edgeStyle=orthogonalEdgeStyle;rounded=0;orthogonalLoop=1;jettySize=auto;html=1;exitX=1;exitY=0.5;exitDx=0;exitDy=0;entryX=0.5;entryY=0;entryDx=0;entryDy=0;" edge="1" parent="WIyWlLk6GJQsqaUBKTNV-1" source="pZb2dNWM5AZfSOz7x3Y4-4" target="pZb2dNWM5AZfSOz7x3Y4-10">
          <mxGeometry relative="1" as="geometry" />
        </mxCell>
        <mxCell id="pZb2dNWM5AZfSOz7x3Y4-4" value="Для всех атомов в пределах effect_range в течении 4 секунд" style="shape=process;whiteSpace=wrap;html=1;backgroundOutline=1;" vertex="1" parent="WIyWlLk6GJQsqaUBKTNV-1">
          <mxGeometry x="50" y="-150" width="150" height="70" as="geometry" />
        </mxCell>
        <mxCell id="pZb2dNWM5AZfSOz7x3Y4-5" value="Если НЕ мех, то сдвинуть к центру рвача.&lt;br&gt;Если человек - отнять 30 стамины. Если стамины слишком мало, человек не сможет пытаться вылезать из центра." style="rounded=0;whiteSpace=wrap;html=1;" vertex="1" parent="WIyWlLk6GJQsqaUBKTNV-1">
          <mxGeometry x="62.5" y="-30" width="125" height="150" as="geometry" />
        </mxCell>
        <mxCell id="pZb2dNWM5AZfSOz7x3Y4-19" style="edgeStyle=orthogonalEdgeStyle;rounded=0;orthogonalLoop=1;jettySize=auto;html=1;exitX=1;exitY=0.5;exitDx=0;exitDy=0;entryX=0;entryY=0.5;entryDx=0;entryDy=0;" edge="1" parent="WIyWlLk6GJQsqaUBKTNV-1" source="pZb2dNWM5AZfSOz7x3Y4-10" target="pZb2dNWM5AZfSOz7x3Y4-18">
          <mxGeometry relative="1" as="geometry" />
        </mxCell>
        <mxCell id="pZb2dNWM5AZfSOz7x3Y4-10" value="ждать&amp;nbsp; 2 секунды и позволять вылезти из себя" style="rounded=0;whiteSpace=wrap;html=1;" vertex="1" parent="WIyWlLk6GJQsqaUBKTNV-1">
          <mxGeometry x="240" y="-90" width="120" height="60" as="geometry" />
        </mxCell>
        <mxCell id="pZb2dNWM5AZfSOz7x3Y4-26" style="edgeStyle=orthogonalEdgeStyle;rounded=0;orthogonalLoop=1;jettySize=auto;html=1;exitX=0.5;exitY=1;exitDx=0;exitDy=0;entryX=0.5;entryY=0;entryDx=0;entryDy=0;" edge="1" parent="WIyWlLk6GJQsqaUBKTNV-1" source="pZb2dNWM5AZfSOz7x3Y4-15" target="pZb2dNWM5AZfSOz7x3Y4-22">
          <mxGeometry relative="1" as="geometry" />
        </mxCell>
        <mxCell id="pZb2dNWM5AZfSOz7x3Y4-15" value="Это моб?" style="rhombus;whiteSpace=wrap;html=1;" vertex="1" parent="WIyWlLk6GJQsqaUBKTNV-1">
          <mxGeometry x="395" y="10" width="130" height="120" as="geometry" />
        </mxCell>
        <mxCell id="pZb2dNWM5AZfSOz7x3Y4-17" value="500 Урона в конечность (одну), вышвырнуть из центра на край" style="rounded=0;whiteSpace=wrap;html=1;" vertex="1" parent="WIyWlLk6GJQsqaUBKTNV-1">
          <mxGeometry x="235" y="190" width="120" height="60" as="geometry" />
        </mxCell>
        <mxCell id="pZb2dNWM5AZfSOz7x3Y4-20" style="edgeStyle=orthogonalEdgeStyle;rounded=0;orthogonalLoop=1;jettySize=auto;html=1;exitX=0.5;exitY=1;exitDx=0;exitDy=0;entryX=0.5;entryY=0;entryDx=0;entryDy=0;" edge="1" parent="WIyWlLk6GJQsqaUBKTNV-1" source="pZb2dNWM5AZfSOz7x3Y4-18" target="pZb2dNWM5AZfSOz7x3Y4-15">
          <mxGeometry relative="1" as="geometry" />
        </mxCell>
        <mxCell id="pZb2dNWM5AZfSOz7x3Y4-28" style="edgeStyle=orthogonalEdgeStyle;rounded=0;orthogonalLoop=1;jettySize=auto;html=1;exitX=0.5;exitY=1;exitDx=0;exitDy=0;entryX=0.5;entryY=0;entryDx=0;entryDy=0;" edge="1" parent="WIyWlLk6GJQsqaUBKTNV-1" source="pZb2dNWM5AZfSOz7x3Y4-18" target="pZb2dNWM5AZfSOz7x3Y4-21">
          <mxGeometry relative="1" as="geometry" />
        </mxCell>
        <mxCell id="pZb2dNWM5AZfSOz7x3Y4-29" style="edgeStyle=orthogonalEdgeStyle;rounded=0;orthogonalLoop=1;jettySize=auto;html=1;exitX=0.5;exitY=1;exitDx=0;exitDy=0;entryX=0.5;entryY=0;entryDx=0;entryDy=0;" edge="1" parent="WIyWlLk6GJQsqaUBKTNV-1" source="pZb2dNWM5AZfSOz7x3Y4-18" target="pZb2dNWM5AZfSOz7x3Y4-23">
          <mxGeometry relative="1" as="geometry" />
        </mxCell>
        <mxCell id="pZb2dNWM5AZfSOz7x3Y4-18" value="Для всех атомов в пределах аномалии (effect_range)" style="rounded=0;whiteSpace=wrap;html=1;" vertex="1" parent="WIyWlLk6GJQsqaUBKTNV-1">
          <mxGeometry x="400" y="-90" width="120" height="60" as="geometry" />
        </mxCell>
        <mxCell id="pZb2dNWM5AZfSOz7x3Y4-25" style="edgeStyle=orthogonalEdgeStyle;rounded=0;orthogonalLoop=1;jettySize=auto;html=1;exitX=0.5;exitY=1;exitDx=0;exitDy=0;entryX=0.5;entryY=0;entryDx=0;entryDy=0;" edge="1" parent="WIyWlLk6GJQsqaUBKTNV-1" source="pZb2dNWM5AZfSOz7x3Y4-21" target="pZb2dNWM5AZfSOz7x3Y4-17">
          <mxGeometry relative="1" as="geometry" />
        </mxCell>
        <mxCell id="pZb2dNWM5AZfSOz7x3Y4-21" value="Это человек?" style="rhombus;whiteSpace=wrap;html=1;" vertex="1" parent="WIyWlLk6GJQsqaUBKTNV-1">
          <mxGeometry x="230" y="10" width="130" height="120" as="geometry" />
        </mxCell>
        <mxCell id="pZb2dNWM5AZfSOz7x3Y4-22" value="Гиб" style="rounded=0;whiteSpace=wrap;html=1;" vertex="1" parent="WIyWlLk6GJQsqaUBKTNV-1">
          <mxGeometry x="400" y="190" width="120" height="60" as="geometry" />
        </mxCell>
        <mxCell id="pZb2dNWM5AZfSOz7x3Y4-27" style="edgeStyle=orthogonalEdgeStyle;rounded=0;orthogonalLoop=1;jettySize=auto;html=1;exitX=0.5;exitY=1;exitDx=0;exitDy=0;entryX=0.5;entryY=0;entryDx=0;entryDy=0;" edge="1" parent="WIyWlLk6GJQsqaUBKTNV-1" source="pZb2dNWM5AZfSOz7x3Y4-23" target="pZb2dNWM5AZfSOz7x3Y4-24">
          <mxGeometry relative="1" as="geometry" />
        </mxCell>
        <mxCell id="pZb2dNWM5AZfSOz7x3Y4-23" value="Это предмет?" style="rhombus;whiteSpace=wrap;html=1;" vertex="1" parent="WIyWlLk6GJQsqaUBKTNV-1">
          <mxGeometry x="560" y="10" width="130" height="120" as="geometry" />
        </mxCell>
        <mxCell id="pZb2dNWM5AZfSOz7x3Y4-24" value="Удалить" style="rounded=0;whiteSpace=wrap;html=1;" vertex="1" parent="WIyWlLk6GJQsqaUBKTNV-1">
          <mxGeometry x="565" y="190" width="120" height="60" as="geometry" />
        </mxCell>
      </root>
    </mxGraphModel>
  </diagram>
</mxfile>
